<?xml version="1.0" standalone="no"?>
<!DOCTYPE svg PUBLIC "-//W3C//DTD SVG 20010904//EN"
 "http://www.w3.org/TR/2001/REC-SVG-20010904/DTD/svg10.dtd">
<svg version="1.0" xmlns="http://www.w3.org/2000/svg"
 width="512.000000pt" height="512.000000pt" viewBox="0 0 512.000000 512.000000"
 preserveAspectRatio="xMidYMid meet">

<g transform="translate(0.000000,512.000000) scale(0.100000,-0.100000)"
fill="#000000" stroke="none">
<path d="M1026 3068 c-8 -29 -148 -534 -311 -1122 l-297 -1069 78 -78 78 -79
341 1093 c188 600 345 1102 349 1114 6 19 -3 29 -70 74 -42 28 -94 67 -114 86
l-38 34 -16 -53z"/>
<path d="M1205 1653 l-387 -1117 22 -16 c33 -22 203 -120 210 -120 3 0 184
458 403 1018 218 559 412 1056 431 1105 l35 87 -160 80 c-88 44 -161 80 -163
80 -1 0 -177 -503 -391 -1117z"/>
<path d="M1790 1374 c-279 -621 -479 -1079 -474 -1084 8 -8 131 -46 205 -63
26 -7 35 11 564 1037 296 575 538 1048 537 1052 0 4 -15 13 -34 20 -18 7 -92
35 -164 63 -71 28 -135 51 -141 51 -5 0 -227 -484 -493 -1076z"/>
<path d="M2416 1191 l-574 -1016 102 -5 c55 -3 104 -3 108 0 7 6 1208 1977
1208 1983 0 2 -28 7 -62 11 -35 3 -95 15 -135 25 l-72 19 -575 -1017z"/>
</g>
</svg>
